<mxfile host="app.diagrams.net" modified="2024-03-31T22:43:44.354Z" agent="Mozilla/5.0 (Windows NT 10.0; Win64; x64) AppleWebKit/537.36 (KHTML, like Gecko) Chrome/123.0.0.0 Safari/537.36" etag="YCTSJm-1d-CCb3GLwHBP" version="23.1.5" type="device">
  <diagram name="Страница — 1" id="uA7nvMlZ3aHNxSitPXUN">
    <mxGraphModel dx="1032" dy="501" grid="1" gridSize="10" guides="1" tooltips="1" connect="1" arrows="1" fold="1" page="1" pageScale="1" pageWidth="827" pageHeight="1169" math="0" shadow="0">
      <root>
        <mxCell id="0" />
        <mxCell id="1" parent="0" />
        <mxCell id="ju-f-q_q1xLpSFYNE70g-1" value="&lt;font style=&quot;font-size: 14px;&quot;&gt;Задача: Написать программу, которая из имеющегося массива строк формирует новый массив из строк, длина которых меньше, либо равна 3 символам.&lt;/font&gt;" style="text;whiteSpace=wrap;html=1;" vertex="1" parent="1">
          <mxGeometry x="91" y="50" width="560" height="50" as="geometry" />
        </mxCell>
        <mxCell id="ju-f-q_q1xLpSFYNE70g-2" value="START" style="rounded=1;whiteSpace=wrap;html=1;" vertex="1" parent="1">
          <mxGeometry x="180" y="140" width="120" height="60" as="geometry" />
        </mxCell>
        <mxCell id="ju-f-q_q1xLpSFYNE70g-19" style="edgeStyle=orthogonalEdgeStyle;rounded=0;orthogonalLoop=1;jettySize=auto;html=1;exitX=0.5;exitY=1;exitDx=0;exitDy=0;entryX=0.5;entryY=0;entryDx=0;entryDy=0;" edge="1" parent="1" source="ju-f-q_q1xLpSFYNE70g-3">
          <mxGeometry relative="1" as="geometry">
            <mxPoint x="242" y="368" as="targetPoint" />
          </mxGeometry>
        </mxCell>
        <mxCell id="ju-f-q_q1xLpSFYNE70g-3" value="string[] strArray = {&quot;Hello&quot;, &quot;2&quot;, &quot;world&quot;, &quot;:-)&quot;}&amp;nbsp; -&amp;nbsp; массив строк&lt;br&gt;n = 3, где n - длина строки массива строк" style="shape=parallelogram;perimeter=parallelogramPerimeter;whiteSpace=wrap;html=1;fixedSize=1;" vertex="1" parent="1">
          <mxGeometry x="57" y="248" width="370" height="72" as="geometry" />
        </mxCell>
        <mxCell id="ju-f-q_q1xLpSFYNE70g-20" style="edgeStyle=orthogonalEdgeStyle;rounded=0;orthogonalLoop=1;jettySize=auto;html=1;exitX=0.5;exitY=1;exitDx=0;exitDy=0;" edge="1" parent="1" target="ju-f-q_q1xLpSFYNE70g-5">
          <mxGeometry relative="1" as="geometry">
            <mxPoint x="242" y="428" as="sourcePoint" />
          </mxGeometry>
        </mxCell>
        <mxCell id="ju-f-q_q1xLpSFYNE70g-11" style="edgeStyle=orthogonalEdgeStyle;rounded=0;orthogonalLoop=1;jettySize=auto;html=1;exitX=0.5;exitY=1;exitDx=0;exitDy=0;entryX=0.5;entryY=0;entryDx=0;entryDy=0;" edge="1" parent="1" source="ju-f-q_q1xLpSFYNE70g-5" target="ju-f-q_q1xLpSFYNE70g-7">
          <mxGeometry relative="1" as="geometry" />
        </mxCell>
        <mxCell id="ju-f-q_q1xLpSFYNE70g-12" value="Yes" style="edgeLabel;html=1;align=center;verticalAlign=middle;resizable=0;points=[];" vertex="1" connectable="0" parent="ju-f-q_q1xLpSFYNE70g-11">
          <mxGeometry x="-0.166" y="3" relative="1" as="geometry">
            <mxPoint as="offset" />
          </mxGeometry>
        </mxCell>
        <mxCell id="ju-f-q_q1xLpSFYNE70g-26" style="edgeStyle=orthogonalEdgeStyle;rounded=0;orthogonalLoop=1;jettySize=auto;html=1;exitX=1;exitY=0.5;exitDx=0;exitDy=0;entryX=0;entryY=0.5;entryDx=0;entryDy=0;" edge="1" parent="1" source="ju-f-q_q1xLpSFYNE70g-5" target="ju-f-q_q1xLpSFYNE70g-25">
          <mxGeometry relative="1" as="geometry" />
        </mxCell>
        <mxCell id="ju-f-q_q1xLpSFYNE70g-27" value="No" style="edgeLabel;html=1;align=center;verticalAlign=middle;resizable=0;points=[];" vertex="1" connectable="0" parent="ju-f-q_q1xLpSFYNE70g-26">
          <mxGeometry x="-0.3085" y="2" relative="1" as="geometry">
            <mxPoint as="offset" />
          </mxGeometry>
        </mxCell>
        <mxCell id="ju-f-q_q1xLpSFYNE70g-5" value="if (item.Lench &amp;lt;= n" style="rhombus;whiteSpace=wrap;html=1;" vertex="1" parent="1">
          <mxGeometry x="143" y="470" width="198" height="110" as="geometry" />
        </mxCell>
        <mxCell id="ju-f-q_q1xLpSFYNE70g-21" style="edgeStyle=orthogonalEdgeStyle;rounded=0;orthogonalLoop=1;jettySize=auto;html=1;entryX=0;entryY=0.5;entryDx=0;entryDy=0;exitX=0;exitY=0.5;exitDx=0;exitDy=0;" edge="1" parent="1" source="ju-f-q_q1xLpSFYNE70g-7" target="ju-f-q_q1xLpSFYNE70g-43">
          <mxGeometry relative="1" as="geometry">
            <mxPoint x="132" y="398" as="targetPoint" />
            <mxPoint x="102" y="650" as="sourcePoint" />
            <Array as="points">
              <mxPoint x="53" y="650" />
              <mxPoint x="53" y="398" />
              <mxPoint x="142" y="398" />
            </Array>
          </mxGeometry>
        </mxCell>
        <mxCell id="ju-f-q_q1xLpSFYNE70g-7" value="newSize ++" style="rounded=0;whiteSpace=wrap;html=1;" vertex="1" parent="1">
          <mxGeometry x="181" y="620" width="122" height="60" as="geometry" />
        </mxCell>
        <mxCell id="ju-f-q_q1xLpSFYNE70g-13" style="edgeStyle=orthogonalEdgeStyle;rounded=0;orthogonalLoop=1;jettySize=auto;html=1;exitX=0.5;exitY=1;exitDx=0;exitDy=0;entryX=0.48;entryY=0.019;entryDx=0;entryDy=0;entryPerimeter=0;" edge="1" parent="1" source="ju-f-q_q1xLpSFYNE70g-2">
          <mxGeometry relative="1" as="geometry">
            <mxPoint x="239.5999999999999" y="249.34900000000005" as="targetPoint" />
          </mxGeometry>
        </mxCell>
        <mxCell id="ju-f-q_q1xLpSFYNE70g-33" style="edgeStyle=orthogonalEdgeStyle;rounded=0;orthogonalLoop=1;jettySize=auto;html=1;exitX=0.5;exitY=1;exitDx=0;exitDy=0;entryX=0.5;entryY=0;entryDx=0;entryDy=0;" edge="1" parent="1" source="ju-f-q_q1xLpSFYNE70g-25" target="ju-f-q_q1xLpSFYNE70g-45">
          <mxGeometry relative="1" as="geometry">
            <mxPoint x="510" y="640" as="targetPoint" />
          </mxGeometry>
        </mxCell>
        <mxCell id="ju-f-q_q1xLpSFYNE70g-25" value="string[] newArray = new string[newSize" style="rounded=0;whiteSpace=wrap;html=1;" vertex="1" parent="1">
          <mxGeometry x="407" y="488" width="233" height="75" as="geometry" />
        </mxCell>
        <mxCell id="ju-f-q_q1xLpSFYNE70g-34" style="edgeStyle=orthogonalEdgeStyle;rounded=0;orthogonalLoop=1;jettySize=auto;html=1;exitX=0.5;exitY=1;exitDx=0;exitDy=0;entryX=0.5;entryY=0;entryDx=0;entryDy=0;" edge="1" parent="1" target="ju-f-q_q1xLpSFYNE70g-29">
          <mxGeometry relative="1" as="geometry">
            <mxPoint x="520" y="743" as="sourcePoint" />
          </mxGeometry>
        </mxCell>
        <mxCell id="ju-f-q_q1xLpSFYNE70g-31" value="" style="edgeStyle=orthogonalEdgeStyle;rounded=0;orthogonalLoop=1;jettySize=auto;html=1;" edge="1" parent="1" source="ju-f-q_q1xLpSFYNE70g-29" target="ju-f-q_q1xLpSFYNE70g-30">
          <mxGeometry relative="1" as="geometry" />
        </mxCell>
        <mxCell id="ju-f-q_q1xLpSFYNE70g-32" value="Yes" style="edgeLabel;html=1;align=center;verticalAlign=middle;resizable=0;points=[];" vertex="1" connectable="0" parent="ju-f-q_q1xLpSFYNE70g-31">
          <mxGeometry x="-0.1549" relative="1" as="geometry">
            <mxPoint as="offset" />
          </mxGeometry>
        </mxCell>
        <mxCell id="ju-f-q_q1xLpSFYNE70g-41" style="edgeStyle=orthogonalEdgeStyle;rounded=0;orthogonalLoop=1;jettySize=auto;html=1;exitX=1;exitY=0.5;exitDx=0;exitDy=0;entryX=0;entryY=0.5;entryDx=0;entryDy=0;" edge="1" parent="1" source="ju-f-q_q1xLpSFYNE70g-29" target="ju-f-q_q1xLpSFYNE70g-39">
          <mxGeometry relative="1" as="geometry" />
        </mxCell>
        <mxCell id="ju-f-q_q1xLpSFYNE70g-29" value="if (item.Lench &amp;lt;= n" style="rhombus;whiteSpace=wrap;html=1;" vertex="1" parent="1">
          <mxGeometry x="423" y="783" width="194" height="110" as="geometry" />
        </mxCell>
        <mxCell id="ju-f-q_q1xLpSFYNE70g-50" value="" style="edgeStyle=orthogonalEdgeStyle;rounded=0;orthogonalLoop=1;jettySize=auto;html=1;entryX=0;entryY=0.5;entryDx=0;entryDy=0;" edge="1" parent="1" target="ju-f-q_q1xLpSFYNE70g-45">
          <mxGeometry relative="1" as="geometry">
            <mxPoint x="462" y="973" as="sourcePoint" />
            <mxPoint x="400" y="710" as="targetPoint" />
            <Array as="points">
              <mxPoint x="462" y="960" />
              <mxPoint x="380" y="960" />
              <mxPoint x="380" y="700" />
            </Array>
          </mxGeometry>
        </mxCell>
        <mxCell id="ju-f-q_q1xLpSFYNE70g-30" value="newArray[i] = item&lt;br&gt;i ++" style="rounded=0;whiteSpace=wrap;html=1;" vertex="1" parent="1">
          <mxGeometry x="460" y="933" width="122" height="60" as="geometry" />
        </mxCell>
        <mxCell id="ju-f-q_q1xLpSFYNE70g-39" value="Console.WriteLine&lt;br&gt;return" style="shape=document;whiteSpace=wrap;html=1;boundedLbl=1;" vertex="1" parent="1">
          <mxGeometry x="655" y="798" width="120" height="80" as="geometry" />
        </mxCell>
        <mxCell id="ju-f-q_q1xLpSFYNE70g-40" value="END" style="rounded=1;whiteSpace=wrap;html=1;" vertex="1" parent="1">
          <mxGeometry x="645" y="935" width="120" height="60" as="geometry" />
        </mxCell>
        <mxCell id="ju-f-q_q1xLpSFYNE70g-42" value="" style="endArrow=classic;html=1;rounded=0;exitX=0.411;exitY=0.961;exitDx=0;exitDy=0;exitPerimeter=0;" edge="1" parent="1">
          <mxGeometry width="50" height="50" relative="1" as="geometry">
            <mxPoint x="704.3199999999999" y="873.8800000000001" as="sourcePoint" />
            <mxPoint x="704.7736351531291" y="934" as="targetPoint" />
          </mxGeometry>
        </mxCell>
        <mxCell id="ju-f-q_q1xLpSFYNE70g-43" value="newSize = 0&#xa;foreach (string item in strArray)" style="shape=hexagon;perimeter=hexagonPerimeter2;whiteSpace=wrap;html=1;fixedSize=1;" vertex="1" parent="1">
          <mxGeometry x="141.5" y="359" width="208.5" height="80" as="geometry" />
        </mxCell>
        <mxCell id="ju-f-q_q1xLpSFYNE70g-45" value="i = 0&lt;br/&gt;&lt;br&gt;foreach (string item in strArray)" style="shape=hexagon;perimeter=hexagonPerimeter2;whiteSpace=wrap;html=1;fixedSize=1;" vertex="1" parent="1">
          <mxGeometry x="420" y="660" width="208.5" height="80" as="geometry" />
        </mxCell>
      </root>
    </mxGraphModel>
  </diagram>
</mxfile>
